<svg width="16" height="14" viewBox="0 0 16 14" fill="none" xmlns="http://www.w3.org/2000/svg">
<path d="M8.24875 14.0045C7.43125 14.0045 6.61375 13.697 5.99125 13.0745C4.74625 11.8295 4.74625 9.81203 5.99125 8.56703L7.85125 6.71453C8.06875 6.49703 8.42875 6.49703 8.64625 6.71453C8.86375 6.93203 8.86375 7.29203 8.64625 7.50953L6.78625 9.36203C5.98375 10.1645 5.98375 11.477 6.78625 12.2795C7.58875 13.082 8.90125 13.082 9.70375 12.2795L12.6212 9.36203C13.5062 8.47703 13.9938 7.29953 13.9938 6.04703C13.9938 4.79453 13.5062 3.61703 12.6212 2.73203C10.7912 0.902031 7.82125 0.902031 5.99125 2.73203L2.81125 5.91203C2.06875 6.65453 1.65625 7.64453 1.65625 8.69453C1.65625 9.74453 2.06875 10.7345 2.81125 11.477C3.02875 11.6945 3.02875 12.0545 2.81125 12.272C2.59375 12.4895 2.23375 12.4895 2.01625 12.272C1.06375 11.312 0.53125 10.0445 0.53125 8.69453C0.53125 7.34453 1.05625 6.06953 2.01625 5.11703L5.19625 1.93703C7.46125 -0.327969 11.1513 -0.327969 13.4163 1.93703C14.5113 3.03203 15.1188 4.49453 15.1188 6.04703C15.1188 7.59953 14.5113 9.06203 13.4163 10.157L10.4987 13.0745C9.87625 13.697 9.06625 14.0045 8.24875 14.0045Z" fill="white"/>
</svg>
