<svg width="26" height="26" viewBox="0 0 26 26" fill="none" xmlns="http://www.w3.org/2000/svg">
<path d="M18.4141 3.79297H7.58073C4.33073 3.79297 2.16406 5.41797 2.16406 9.20964V16.793C2.16406 20.5846 4.33073 22.2096 7.58073 22.2096H18.4141C21.6641 22.2096 23.8307 20.5846 23.8307 16.793V9.20964C23.8307 5.41797 21.6641 3.79297 18.4141 3.79297ZM18.9232 10.3905L15.5324 13.0988C14.8174 13.673 13.9074 13.9546 12.9974 13.9546C12.0874 13.9546 11.1666 13.673 10.4624 13.0988L7.07156 10.3905C6.7249 10.1088 6.67073 9.5888 6.94156 9.24214C7.22323 8.89547 7.7324 8.83047 8.07906 9.11214L11.4699 11.8205C12.2932 12.4813 13.6907 12.4813 14.5141 11.8205L17.9049 9.11214C18.2516 8.83047 18.7716 8.88464 19.0424 9.24214C19.3241 9.5888 19.2699 10.1088 18.9232 10.3905Z" fill="#CBD2F2"/>
</svg>
